<svg width="60" height="60" viewBox="0 0 60 60" fill="none" xmlns="http://www.w3.org/2000/svg">
<path d="M30.0002 0C22.0434 0 14.4131 3.16086 8.78687 8.78687C3.16086 14.4129 0 22.0441 0 30.0002C0 37.9562 3.16086 45.5872 8.78687 51.2135C14.4129 56.8395 22.0441 60.0004 30.0002 60.0004C36.8464 60.0273 43.4908 57.6855 48.8075 53.3717C53.6453 49.4789 57.1558 44.1813 58.855 38.2097C60.5542 32.2377 60.3589 25.8857 58.2951 20.0297C56.2313 14.1736 52.4012 9.10188 47.3333 5.5141C42.2654 1.92633 36.2093 0.000238194 29.9998 0.000238194L30.0002 0ZM51.5599 44.5302C50.1294 40.0803 45.7135 36.3739 39.7885 34.4008C37.2699 37.1385 33.7197 38.6963 29.9995 38.6963C26.2792 38.6963 22.7292 37.1385 20.2104 34.4003C14.2841 36.3739 9.86998 40.0812 8.44044 44.532C4.90707 39.2915 3.40408 32.9433 4.21147 26.6747C5.01924 20.406 8.08246 14.646 12.8281 10.4721C17.5742 6.29804 23.6783 3.99564 29.9985 3.99564C36.3188 3.99517 42.4224 6.29709 47.1689 10.4703C51.9155 14.6441 54.9791 20.4035 55.787 26.6717C56.5952 32.9398 55.0927 39.2885 51.5598 44.529L51.5599 44.5302Z" fill="#6E63FF"/>
<path d="M40.7956 23.3514C40.7956 29.9856 35.9619 35.3634 29.9997 35.3634C24.0375 35.3634 19.2039 29.9853 19.2039 23.3514C19.2039 16.7171 24.0375 11.3394 29.9997 11.3394C35.9619 11.3394 40.7956 16.717 40.7956 23.3514Z" fill="#6E63FF"/>
</svg>
